<?xml version="1.0" encoding="iso-8859-1"?>
<!-- Generator: Adobe Illustrator 19.0.0, SVG Export Plug-In . SVG Version: 6.00 Build 0)  -->
<svg version="1.1" id="Layer_1" xmlns="http://www.w3.org/2000/svg" xmlns:xlink="http://www.w3.org/1999/xlink" x="0px" y="0px"
	 viewBox="0 0 512 512" style="enable-background:new 0 0 512 512;" xml:space="preserve">
<g>
	<g>
		<g>
			<path d="M412.983,115.651c4.485,0,8.12-3.634,8.12-8.12v-86.42C421.103,9.471,411.632,0,399.992,0H112.008
				c-11.64,0-21.111,9.471-21.111,21.111v469.777c0,11.641,9.471,21.111,21.111,21.111h287.982c11.641,0,21.111-9.471,21.111-21.111
				V134.233c0-4.485-3.634-8.12-8.12-8.12s-8.12,3.634-8.12,8.12v356.656c0,2.686-2.186,4.872-4.872,4.872H112.008
				c-2.686,0-4.872-2.186-4.872-4.872V21.111c0-2.686,2.186-4.872,4.872-4.872h287.982c2.686,0,4.872,2.186,4.872,4.872v86.42
				C404.863,112.017,408.498,115.651,412.983,115.651z"/>
			<path d="M158.756,61.135c-4.484,0-8.12,3.634-8.12,8.12v40.002v166.745v166.743c0,4.485,3.635,8.12,8.12,8.12h194.488
				c4.485,0,8.12-3.634,8.12-8.12V276.003V109.257V69.255c0-4.485-3.634-8.12-8.12-8.12H158.756z M345.124,434.625H166.875V284.123
				h178.248V434.625z M345.124,101.138h-27.39c-4.485,0-8.12,3.634-8.12,8.12s3.634,8.12,8.12,8.12h27.39v150.506H166.875V117.377
				h121.629c4.485,0,8.12-3.634,8.12-8.12s-3.634-8.12-8.12-8.12H166.875V77.375h178.248V101.138z"/>
			<circle cx="131.519" cy="39.688" r="10.826"/>
			<circle cx="380.027" cy="39.688" r="10.826"/>
			<circle cx="131.519" cy="471.661" r="10.826"/>
			<circle cx="380.027" cy="471.661" r="10.826"/>
			<path d="M256,152.824c-4.484,0-8.12,3.634-8.12,8.12v61.044c0,4.485,3.635,8.12,8.12,8.12c4.485,0,8.12-3.634,8.12-8.12v-61.044
				C264.12,156.459,260.484,152.824,256,152.824z"/>
			<path d="M256,403.995c23.58,0,42.764-19.184,42.764-42.764S279.58,318.467,256,318.467c-23.58,0-42.764,19.184-42.764,42.764
				S232.419,403.995,256,403.995z M256,334.706c14.626,0,26.525,11.898,26.525,26.525S270.626,387.756,256,387.756
				c-14.625,0-26.525-11.898-26.525-26.525S241.374,334.706,256,334.706z"/>
		</g>
	</g>
</g>
<g>
</g>
<g>
</g>
<g>
</g>
<g>
</g>
<g>
</g>
<g>
</g>
<g>
</g>
<g>
</g>
<g>
</g>
<g>
</g>
<g>
</g>
<g>
</g>
<g>
</g>
<g>
</g>
<g>
</g>
</svg>
